<?xml version="1.0" encoding="UTF-8" standalone="no"?>
<svg
   xmlns:dc="http://purl.org/dc/elements/1.1/"
   xmlns:cc="http://creativecommons.org/ns#"
   xmlns:rdf="http://www.w3.org/1999/02/22-rdf-syntax-ns#"
   xmlns:svg="http://www.w3.org/2000/svg"
   xmlns="http://www.w3.org/2000/svg"
   xmlns:sodipodi="http://sodipodi.sourceforge.net/DTD/sodipodi-0.dtd"
   xmlns:inkscape="http://www.inkscape.org/namespaces/inkscape"
   version="1.1"
   id="svg28"
   xml:space="preserve"
   width="220.125mm"
   height="90.119331mm"
   viewBox="0 0 831.96847 340.6085"
   sodipodi:docname="Front Window.svg"
   inkscape:version="1.0beta2 (2b71d25, 2019-12-03)"><metadata
     id="metadata34"><rdf:RDF><cc:Work
         rdf:about=""><dc:format>image/svg+xml</dc:format><dc:type
           rdf:resource="http://purl.org/dc/dcmitype/StillImage" /><dc:title></dc:title></cc:Work></rdf:RDF></metadata><defs
     id="defs32"><clipPath
       clipPathUnits="userSpaceOnUse"
       id="clipPath44"><path
         d="m 2138,2918 h 9754 V 6530 H 2138 V 2918"
         id="path42"
         inkscape:connector-curvature="0" /></clipPath></defs><sodipodi:namedview
     fit-margin-bottom="10"
     fit-margin-right="10"
     fit-margin-left="10"
     fit-margin-top="10"
     units="mm"
     inkscape:document-units="mm"
     pagecolor="#ffffff"
     bordercolor="#666666"
     inkscape:document-rotation="0"
     borderopacity="1"
     objecttolerance="10"
     gridtolerance="10"
     guidetolerance="10"
     inkscape:pageopacity="0"
     inkscape:pageshadow="2"
     inkscape:window-width="1680"
     inkscape:window-height="1005"
     id="namedview30"
     showgrid="false"
     inkscape:zoom="2.2213008"
     inkscape:cx="326.8814"
     inkscape:cy="206.28835"
     inkscape:window-x="1"
     inkscape:window-y="23"
     inkscape:window-maximized="0"
     inkscape:current-layer="layer1" /><g
     transform="matrix(0.08,0,0,-0.08,-145.21575,548.22425)"
     id="g36"
     inkscape:groupmode="layer"
     inkscape:label="Front Window"><g
       id="g38"><g
         id="g40"
         clip-path="url(#clipPath44)"><g
           id="g68"
           transform="rotate(-90,3153.5,390)"><path
             d="m 0,-472.5 c 260.95456,0 472.5,211.54544 472.5,472.5"
             style="fill:none;stroke:#0000ff;stroke-width:4.72441;stroke-linecap:round;stroke-linejoin:round;stroke-miterlimit:10;stroke-dasharray:none;stroke-opacity:1"
             id="path70"
             inkscape:connector-curvature="0" /></g><path
           d="m 2763,3070 h 8504"
           style="fill:none;stroke:#0000ff;stroke-width:4.72441;stroke-linecap:round;stroke-linejoin:round;stroke-miterlimit:10;stroke-dasharray:none;stroke-opacity:1"
           id="path72"
           inkscape:connector-curvature="0" /><path
           d="m 11267.5,3071 c 260.954,0 472.5,211.5454 472.5,472.5"
           style="fill:none;stroke:#0000ff;stroke-width:4.72441;stroke-linecap:round;stroke-linejoin:round;stroke-miterlimit:10;stroke-dasharray:none;stroke-opacity:1"
           id="path74"
           inkscape:connector-curvature="0" /><path
           d="M 11740,3543 V 5905"
           style="fill:none;stroke:#0000ff;stroke-width:4.72441;stroke-linecap:round;stroke-linejoin:round;stroke-miterlimit:10;stroke-dasharray:none;stroke-opacity:1"
           id="path76"
           inkscape:connector-curvature="0" /><g
           id="g78"
           transform="rotate(90,2681,8586.5)"><path
             d="m 0,-472.5 c 260.95456,0 472.5,211.54544 472.5,472.5"
             style="fill:none;stroke:#0000ff;stroke-width:4.72441;stroke-linecap:round;stroke-linejoin:round;stroke-miterlimit:10;stroke-dasharray:none;stroke-opacity:1"
             id="path80"
             inkscape:connector-curvature="0" /></g><path
           d="M 11267,6378 H 2763"
           style="fill:none;stroke:#0000ff;stroke-width:4.72441;stroke-linecap:round;stroke-linejoin:round;stroke-miterlimit:10;stroke-dasharray:none;stroke-opacity:1"
           id="path82"
           inkscape:connector-curvature="0" /><g
           id="g84"
           transform="rotate(180,1381.75,2952.75)"><path
             d="m 0,-472.5 c 260.95456,0 472.5,211.54544 472.5,472.5"
             style="fill:none;stroke:#0000ff;stroke-width:4.72441;stroke-linecap:round;stroke-linejoin:round;stroke-miterlimit:10;stroke-dasharray:none;stroke-opacity:1"
             id="path86"
             inkscape:connector-curvature="0" /></g><path
           d="M 2290,5905 V 3543"
           style="fill:none;stroke:#0000ff;stroke-width:4.72441;stroke-linecap:round;stroke-linejoin:round;stroke-miterlimit:10;stroke-dasharray:none;stroke-opacity:1"
           id="path88"
           inkscape:connector-curvature="0" /><g
           id="g90"
           transform="rotate(90,-390,3153.5)"><path
             d="M 0,-85.5 C 47.22035,-85.5 85.5,-47.22035 85.5,0 85.5,47.22035 47.22035,85.5 0,85.5 -47.22035,85.5 -85.5,47.22035 -85.5,0 -85.5,-47.22035 -47.22035,-85.5 0,-85.5"
             style="fill:none;stroke:#0000fe;stroke-width:4.72441;stroke-linecap:round;stroke-linejoin:round;stroke-miterlimit:10;stroke-dasharray:none;stroke-opacity:1"
             id="path92"
             inkscape:connector-curvature="0" /></g><g
           id="g94"
           transform="rotate(90,3862,7405.5)"><path
             d="M 0,-85.5 C 47.22035,-85.5 85.5,-47.22035 85.5,0 85.5,47.22035 47.22035,85.5 0,85.5 -47.22035,85.5 -85.5,47.22035 -85.5,0 -85.5,-47.22035 -47.22035,-85.5 0,-85.5"
             style="fill:none;stroke:#0000ff;stroke-width:4.72441;stroke-linecap:round;stroke-linejoin:round;stroke-miterlimit:10;stroke-dasharray:none;stroke-opacity:1"
             id="path96"
             inkscape:connector-curvature="0" /></g><g
           id="g98"
           transform="rotate(90,-1571,4334.5)"><path
             d="M 0,-85.5 C 47.22035,-85.5 85.5,-47.22035 85.5,0 85.5,47.22035 47.22035,85.5 0,85.5 -47.22035,85.5 -85.5,47.22035 -85.5,0 -85.5,-47.22035 -47.22035,-85.5 0,-85.5"
             style="fill:none;stroke:#0000ff;stroke-width:4.72441;stroke-linecap:round;stroke-linejoin:round;stroke-miterlimit:10;stroke-dasharray:none;stroke-opacity:1"
             id="path100"
             inkscape:connector-curvature="0" /></g><g
           id="g102"
           transform="rotate(90,2681,8586.5)"><path
             d="M 0,-85.5 C 47.22035,-85.5 85.5,-47.22035 85.5,0 85.5,47.22035 47.22035,85.5 0,85.5 -47.22035,85.5 -85.5,47.22035 -85.5,0 -85.5,-47.22035 -47.22035,-85.5 0,-85.5"
             style="fill:none;stroke:#0000ff;stroke-width:4.72441;stroke-linecap:round;stroke-linejoin:round;stroke-miterlimit:10;stroke-dasharray:none;stroke-opacity:1"
             id="path104"
             inkscape:connector-curvature="0" /></g></g><g
         inkscape:groupmode="layer"
         id="layer1"
         inkscape:label="Over"
         style="display:inline"><g
           style="font-style:normal;font-weight:normal;font-size:283.465px;line-height:1.25;font-family:sans-serif;fill:#000000;fill-opacity:1;stroke:#ff0000;stroke-width:4.72441;stroke-miterlimit:4;stroke-dasharray:none;stroke-opacity:1"
           id="text60"
           transform="scale(1,-1)"
           aria-label="HONEYLIGHT"><path
             id="path906"
             style="font-style:normal;font-variant:normal;font-weight:bold;font-stretch:normal;font-family:'Gill Sans';-inkscape-font-specification:'Gill Sans Bold';text-align:center;text-anchor:middle;stroke:#ff0000;stroke-width:4.72441;stroke-miterlimit:4;stroke-dasharray:none;stroke-opacity:1"
             d="m 6173.6709,-6089.0449 h -57.7173 v -74.8802 h -87.0603 v 74.8802 h -57.8556 v -191.8372 h 57.8556 v 70.451 h 87.0603 v -70.451 h 57.7173 z" /><path
             id="path908"
             style="font-style:normal;font-variant:normal;font-weight:bold;font-stretch:normal;font-family:'Gill Sans';-inkscape-font-specification:'Gill Sans Bold';text-align:center;text-anchor:middle;stroke:#ff0000;stroke-width:4.72441;stroke-miterlimit:4;stroke-dasharray:none;stroke-opacity:1"
             d="m 6427.1007,-6185.1019 q 0,26.8517 -12.4569,49.4126 -12.3186,22.5609 -36.8172,35.8483 -24.4987,13.2875 -59.655,13.2875 -35.5716,0 -60.2087,-13.8411 -24.6371,-13.8411 -36.6788,-36.402 -11.9033,-22.5609 -11.9033,-48.3053 0,-25.8828 11.9033,-48.3053 11.9033,-22.561 36.5404,-36.2636 24.7755,-13.8411 60.3471,-13.8411 26.5748,0 47.3364,7.8894 20.9,7.8894 34.3259,21.4537 13.4258,13.4258 20.3463,31.4192 6.9205,17.855 6.9205,37.6477 z m -58.9629,0 q 0,-10.796 -3.1834,-19.6543 -3.1835,-8.9967 -9.6888,-15.502 -6.3669,-6.6437 -15.6404,-10.2424 -9.2735,-3.7371 -21.4536,-3.7371 -23.253,0 -36.5404,13.5643 -13.2875,13.5642 -13.2875,35.5715 0,22.0073 13.2875,35.7099 13.4258,13.5643 36.5404,13.5643 15.9172,0 27.1285,-6.2285 11.2112,-6.3669 17.0245,-17.4397 5.8132,-11.2113 5.8132,-25.606 z" /><path
             id="path910"
             style="font-style:normal;font-variant:normal;font-weight:bold;font-stretch:normal;font-family:'Gill Sans';-inkscape-font-specification:'Gill Sans Bold';text-align:center;text-anchor:middle;stroke:#ff0000;stroke-width:4.72441;stroke-miterlimit:4;stroke-dasharray:none;stroke-opacity:1"
             d="m 6667.3124,-6089.0449 h -51.4888 l -99.5172,-106.853 v 106.853 h -57.302 v -191.8372 h 51.3503 l 99.2405,106.2994 v -106.2994 h 57.7172 z" /><path
             id="path912"
             style="font-style:normal;font-variant:normal;font-weight:bold;font-stretch:normal;font-family:'Gill Sans';-inkscape-font-specification:'Gill Sans Bold';text-align:center;text-anchor:middle;stroke:#ff0000;stroke-width:4.72441;stroke-miterlimit:4;stroke-dasharray:none;stroke-opacity:1"
             d="m 6859.7724,-6089.0449 h -144.6391 v -191.8372 h 142.2861 v 38.4782 h -84.4305 v 35.1563 h 80.555 v 38.6166 h -80.555 v 40.9695 h 86.7835 z" /><path
             id="path914"
             style="font-style:normal;font-variant:normal;font-weight:bold;font-stretch:normal;font-family:'Gill Sans';-inkscape-font-specification:'Gill Sans Bold';text-align:center;text-anchor:middle;stroke:#ff0000;stroke-width:4.72441;stroke-miterlimit:4;stroke-dasharray:none;stroke-opacity:1"
             d="m 7085.5202,-6280.8821 -75.157,103.9464 v 87.8908 h -57.8556 v -86.7835 l -76.5411,-105.0537 h 60.0702 l 44.0146,60.3471 44.153,-60.3471 z" /><path
             id="path916"
             style="font-style:normal;font-variant:normal;font-weight:bold;font-stretch:normal;font-family:'Gill Sans';-inkscape-font-specification:'Gill Sans Bold';text-align:center;text-anchor:middle;stroke:#ff0000;stroke-width:4.72441;stroke-miterlimit:4;stroke-dasharray:none;stroke-opacity:1"
             d="m 7257.2878,-6089.0449 h -145.7465 v -191.8372 h 57.8557 v 145.8848 h 87.8908 z" /><path
             id="path918"
             style="font-style:normal;font-variant:normal;font-weight:bold;font-stretch:normal;font-family:'Gill Sans';-inkscape-font-specification:'Gill Sans Bold';text-align:center;text-anchor:middle;stroke:#ff0000;stroke-width:4.72441;stroke-miterlimit:4;stroke-dasharray:none;stroke-opacity:1"
             d="m 7349.0541,-6089.0449 h -57.8557 v -191.8372 h 57.8557 z" /><path
             id="path920"
             style="font-style:normal;font-variant:normal;font-weight:bold;font-stretch:normal;font-family:'Gill Sans';-inkscape-font-specification:'Gill Sans Bold';text-align:center;text-anchor:middle;stroke:#ff0000;stroke-width:4.72441;stroke-miterlimit:4;stroke-dasharray:none;stroke-opacity:1"
             d="m 7578.6773,-6102.6092 q -6.2284,2.353 -10.6576,3.8755 -4.4291,1.5226 -8.5814,2.7682 -4.014,1.2457 -11.765,3.1835 -13.149,3.045 -26.298,4.5675 -13.0106,1.661 -27.5437,1.661 -29.2046,0 -53.9801,-10.6576 -24.7755,-10.6577 -39.7239,-33.0802 -14.8099,-22.4225 -14.8099,-55.0874 0,-21.0384 7.6126,-41.2464 7.7509,-20.3464 23.5298,-32.5265 13.0106,-10.104 26.298,-15.3636 13.4258,-5.398 26.1596,-7.1973 12.7338,-1.7994 28.0974,-1.7994 25.3291,0 41.8,3.8755 16.4708,3.7371 36.1251,9.9656 v 45.3987 q -13.0106,-7.6126 -27.5437,-12.7338 -14.5331,-5.1212 -36.2636,-5.1212 -25.0523,0 -40.139,9.5503 -14.9484,9.412 -20.9001,22.561 -5.8132,13.149 -5.8132,25.4675 0,14.5332 6.7821,26.8517 6.7821,12.1801 20.4848,19.6543 13.7026,7.3358 33.0801,7.3358 11.0729,0 23.5298,-2.9066 v -22.561 h -26.0212 v -38.6166 h 76.5411 z" /><path
             id="path922"
             style="font-style:normal;font-variant:normal;font-weight:bold;font-stretch:normal;font-family:'Gill Sans';-inkscape-font-specification:'Gill Sans Bold';text-align:center;text-anchor:middle;stroke:#ff0000;stroke-width:4.72441;stroke-miterlimit:4;stroke-dasharray:none;stroke-opacity:1"
             d="m 7826.8475,-6089.0449 h -57.7172 v -74.8802 H 7682.07 v 74.8802 h -57.8557 v -191.8372 h 57.8557 v 70.451 h 87.0603 v -70.451 h 57.7172 z" /><path
             id="path924"
             style="font-style:normal;font-variant:normal;font-weight:bold;font-stretch:normal;font-family:'Gill Sans';-inkscape-font-specification:'Gill Sans Bold';text-align:center;text-anchor:middle;stroke:#ff0000;stroke-width:4.72441;stroke-miterlimit:4;stroke-dasharray:none;stroke-opacity:1"
             d="m 8058.9622,-6234.2377 h -70.3126 v 145.1928 h -57.7172 v -145.1928 h -70.3126 v -46.6444 h 198.3424 z" /></g></g></g></g></svg>
